<svg width="446" height="114" viewBox="0 0 446 114" fill="none" xmlns="http://www.w3.org/2000/svg">
<g clip-path="url(#clip0_1_3)">
<path d="M50.9879 30.2593C50.6396 27.0926 47.039 0 47.039 0C47.039 0 39.8379 14.4259 27.0619 22.6358C17.8865 29.4383 7.20105 36.3581 1.85834 46.9135C-1.16146 54.3026 -0.232289 61.5741 2.67136 68.7283C3.0198 69.5493 5.69116 74.1234 6.62032 75.6481L4.87814 70.7223C1.62604 60.5185 3.36824 50.6666 11.3823 43.2777C17.4219 37.7655 24.9713 34.0124 31.824 29.6727C33.3338 28.7346 40.8833 23.2222 40.8833 23.2222C40.8833 23.2222 41.6963 32.605 41.8125 34.7161C42.5094 46.9135 44.7161 66.3826 34.6115 75.6481C32.1723 77.8765 28.3396 79.9876 24.9713 79.1666C21.0223 78.2285 21.7192 74.3581 21.9515 71.3087C22.1838 68.3766 21.0223 64.6235 17.3057 65.3272C14.2859 65.9136 12.6599 69.5493 11.6146 72.0124C8.24636 79.6358 7.54949 87.7284 8.24636 96.1729C8.5948 99.4567 9.29168 102.623 10.4531 105.673C11.6146 108.722 13.2406 111.537 15.2151 114C13.9375 111.068 13.0083 108.136 12.3115 105.086C10.9177 97.932 11.7307 90.4258 13.7052 83.5062C13.8214 83.037 14.6344 80.5742 14.6344 80.5742C14.6344 80.5742 18.0026 88.3148 28.9202 87.6111C38.9088 86.9074 46.1098 78.8148 49.3619 69.6666C54.5886 54.537 51.3365 33.4258 50.9879 30.2593Z" fill="#8A2061"/>
<path d="M84.0896 69.3149C84.0896 69.3149 84.0896 69.0803 84.0896 68.6112C84.0896 68.142 84.0896 67.5556 84.2056 66.8519C84.2056 66.1482 84.3219 65.3272 84.3219 64.3889C84.3219 63.4508 84.4379 62.5124 84.4379 61.5741C84.4379 60.6358 84.5542 59.6977 84.5542 58.7593C84.5542 57.821 84.6702 57 84.6702 56.4136C84.6702 55.9446 84.6702 55.358 84.6702 54.537C84.6702 53.8333 84.6702 53.0123 84.6702 52.1915C84.6702 51.3705 84.6702 50.5495 84.6702 49.6112V47.0308V44.6853C84.6702 43.9814 84.6702 43.2777 84.6702 42.6914C84.6702 42.105 84.6702 41.6359 84.6702 41.284V40.6976V40.2283H89.0838L89.2 41.1667C89.5484 40.9322 89.8969 40.8149 90.2452 40.6976C90.5938 40.5803 90.9421 40.5803 91.2906 40.463C91.4067 40.463 91.4067 40.463 91.5229 40.463C91.639 40.463 91.639 40.463 91.7552 40.463C91.9875 40.463 92.1036 40.3457 92.4521 40.3457C92.6844 40.3457 92.9167 40.3457 93.265 40.3457C93.4973 40.3457 93.8459 40.3457 94.0781 40.3457H94.8911H95.7042C96.8656 40.3457 98.0271 40.5803 99.0723 40.9322C100.118 41.4013 101.047 41.9877 101.86 42.8087C102.673 43.6297 103.37 44.568 103.834 45.6234C104.299 46.6791 104.531 47.8518 104.531 49.0248C104.531 50.1975 104.299 51.2532 103.834 52.4259C103.37 53.4816 102.673 54.4199 101.86 55.2407C101.047 56.0617 100.118 56.6483 99.0723 57.1173C98.0271 57.5864 96.8656 57.821 95.8202 57.821H95.7042C95.5879 57.821 95.4719 57.821 95.3556 57.821C95.2396 57.821 95.1234 57.821 95.0073 57.821C94.3104 57.821 93.7296 57.821 93.149 57.7037C92.5681 57.5864 91.8713 57.5864 91.2906 57.4691C91.0584 57.4691 90.7098 57.352 90.5938 57.352C90.3615 57.352 90.2452 57.2346 90.0129 57.2346L90.4775 69.9013H84.3219L84.0896 69.3149ZM89.6646 51.9569C89.6646 52.0742 89.6646 52.1915 89.7806 52.3086C89.8969 52.4259 90.0129 52.5432 90.2452 52.6606C90.3615 52.7779 90.5938 52.7779 90.9421 52.7779C91.2906 52.7779 91.639 52.8952 91.9875 52.8952C92.3359 52.8952 92.8004 52.8952 93.149 52.8952H94.1942C94.3104 52.8952 94.4265 52.8952 94.5427 52.8952C94.6588 52.8952 94.775 52.8952 95.0073 52.8952H95.8202C96.2848 52.8952 96.7494 52.7779 97.214 52.5432C97.6786 52.3086 98.0271 52.0742 98.3754 51.7222C98.724 51.3705 98.9563 50.9012 99.1886 50.4322C99.4208 49.9629 99.5369 49.3765 99.5369 48.9075C99.5369 48.3211 99.4208 47.8518 99.1886 47.3828C98.9563 46.9137 98.724 46.4444 98.3754 46.0927C98.0271 45.7408 97.6786 45.389 97.214 45.1544C96.7494 44.9197 96.2848 44.8024 95.8202 44.8024C94.6588 44.8024 93.7296 44.8024 92.9167 44.8024C92.1036 44.8024 91.5229 44.9197 91.0583 45.0371C90.9421 45.0371 90.8261 45.1544 90.5938 45.1544C90.4775 45.2717 90.2452 45.2717 90.1292 45.389C90.0129 45.5061 89.7806 45.6234 89.6646 45.7408C89.5484 45.8581 89.4323 45.9754 89.4323 46.21L89.6646 51.9569Z" fill="#8A2061"/>
<path d="M128.457 69.7837L122.65 59.5801C122.534 59.4628 122.534 59.3455 122.418 59.1111C122.301 58.8764 122.069 58.7591 121.953 58.5245C121.721 58.2901 121.489 58.1727 121.14 58.0554C120.792 57.9381 120.443 57.8208 120.095 57.8208H116.146L116.494 69.7837H110.455L111.268 40.3456H123.695C124.973 40.3456 126.134 40.5801 127.296 41.0493C128.341 41.5184 129.386 42.1048 130.199 42.9258C131.013 43.7468 131.593 44.6851 132.058 45.7405C132.522 46.7962 132.755 47.9689 132.755 49.1419C132.755 50.0802 132.639 51.0183 132.29 51.8393C131.942 52.7776 131.593 53.5986 131.013 54.3023C130.548 55.006 129.967 55.5924 129.27 56.0617C128.573 56.5307 127.876 56.9998 127.18 57.2344L134.265 67.3209V69.7837H128.457ZM124.044 52.7776C124.508 52.7776 124.973 52.6603 125.438 52.4259C125.902 52.1913 126.25 51.8393 126.599 51.4876C126.947 51.1356 127.18 50.6666 127.412 50.0802C127.644 49.6109 127.76 49.0246 127.76 48.4382C127.76 47.9689 127.644 47.4999 127.528 47.0308C127.412 46.5615 127.18 46.2098 126.831 45.7405C126.483 45.3888 126.134 45.0368 125.67 44.8024C125.205 44.5678 124.624 44.4505 124.044 44.4505H115.914L116.146 52.543H124.044V52.7776Z" fill="#8A2061"/>
<path d="M156.332 40.3456L167.366 69.9011H160.978L158.655 61.4568H149.131L146.808 69.9011H140.42L151.57 40.4627L156.332 40.3456ZM150.293 56.8827H157.378L153.893 45.6234L150.293 56.8827Z" fill="#8A2061"/>
<path d="M189.085 40.3456L200.119 69.9011H193.731L191.408 61.4568H181.884L179.561 69.9011H173.174L184.323 40.4627L189.085 40.3456ZM183.046 56.8827H190.131L186.646 45.6234L183.046 56.8827Z" fill="#8A2061"/>
<path d="M210.805 69.7837L201.281 40.3456H205.694L213.708 60.8702L221.722 40.3456H226.136L216.611 69.7837H210.805Z" fill="#8A2061"/>
<path d="M243.442 40.3456L254.476 69.9011H248.087L245.765 61.4568H236.24L233.917 69.9011H227.53L238.68 40.4627L243.442 40.3456ZM237.402 56.8827H244.486L241.003 45.6234L237.402 56.8827Z" fill="#8A2061"/>
<path d="M299.076 69.7837H293.732L294.197 56.4134L286.648 56.179L280.144 56.4134L280.608 69.7837H275.265L276.078 40.3456H279.795L280.028 51.9566L286.648 52.1913L294.313 51.9566L294.546 40.3456H298.262L299.076 69.7837Z" fill="#8A2061"/>
<path d="M309.877 40.3456L309.064 69.7837H327.298V65.2097H314.174L313.943 56.4134H324.51L324.628 52.3086H313.827L313.594 43.8641H327.298V40.3456H309.877Z" fill="#8A2061"/>
<path d="M362.606 69.784H357.031L354.593 61.105H344.141L341.818 69.784H336.243L347.393 40.2283H351.574L362.606 69.784ZM353.779 57.4691L349.482 43.747L345.07 57.4691H353.779Z" fill="#8A2061"/>
<path d="M375.848 65.2097H385.953L387.347 67.2036V69.7837H370.737L371.551 40.3456H375.152L375.848 65.2097Z" fill="#8A2061"/>
<path d="M413.246 43.8641H403.723L404.419 69.7837H399.193L400.006 43.8641H390.481V40.3456H413.246V43.8641Z" fill="#8A2061"/>
<path d="M446 69.7837H440.656L441.121 56.4134L433.572 56.179L427.068 56.4134L427.532 69.7837H422.191L423.002 40.3456H426.719L426.952 51.9566L433.456 52.1913L441.239 51.9566L441.47 40.3456H445.186L446 69.7837Z" fill="#8A2061"/>
</g>
<defs>
<clipPath id="clip0_1_3">
<rect width="446" height="114" fill="white"/>
</clipPath>
</defs>
</svg>
